<?xml version="1.0" encoding="UTF-8"?>
<svg xmlns="http://www.w3.org/2000/svg" id="Layer_1" data-name="Layer 1" viewBox="0 0 24 24">
  <path d="M12.022,22.971c-6.078,0-11.022-4.932-11.022-10.993C1,6.277,5.285,1.573,10.968,1.034c.443-.051,.845,.203,1.015,.604,.171,.4,.062,.866-.269,1.149-1.094,.938-1.626,2.56-1.626,4.957,0,5.128,2.364,6.158,6.179,6.158,2.462,0,4.04-.515,4.968-1.62,.28-.336,.749-.447,1.151-.28,.404,.169,.651,.581,.609,1.017-.535,5.673-5.253,9.951-10.973,9.951ZM8.78,3.576c-3.418,1.296-5.78,4.574-5.78,8.401,0,4.959,4.048,8.993,9.022,8.993,3.832,0,7.115-2.345,8.421-5.74-1.416,.579-2.961,.673-4.177,.673-3.511,0-8.179-.846-8.179-8.158,0-1.653,.229-3.036,.692-4.169Z"/>
</svg>
